<?xml version="1.0" encoding="UTF-8"?>
<svg version="1.1" xmlns="http://www.w3.org/2000/svg" width="559" height="447">
<path d="M0 0 C24.09 0 48.18 0 73 0 C72.27523719 3.62381404 71.82115884 5.68696629 70.3125 8.8125 C68.32083578 13.13622197 66.64418674 17.5363967 65 22 C63.16997882 26.95188873 61.2581869 31.81021616 59.0625 36.61328125 C55.55348259 44.49566963 52.37230415 52.46969438 49.9375 60.75 C48.46728641 65.71498359 46.62598783 70.26650884 44.4140625 74.94140625 C40.00969632 84.4679773 36.23504182 94.279808 32.62353516 104.12890625 C29.45667171 112.63384616 25.90393784 120.98755416 22.40161133 129.35839844 C19.50441136 136.29733625 16.70738929 143.26109818 14.04370117 150.29321289 C13.20283056 152.47396902 12.32139736 154.61398511 11.375 156.75 C10.35092062 159.17055126 9.49803428 161.48029653 8.703125 163.97265625 C6.83061973 169.64062535 4.61075433 175.1547429 2.375 180.6875 C1.93768555 181.77603271 1.50037109 182.86456543 1.04980469 183.98608398 C-2.21836851 192.10644583 -5.54226557 200.20345673 -8.87646484 208.296875 C-11.36819618 214.37415982 -13.71004438 220.49314719 -15.97363281 226.65844727 C-17.67417406 231.24812486 -19.63670339 235.65644401 -21.7109375 240.0859375 C-25.39613421 248.41671552 -28.41235527 257.07264297 -31.2265625 265.73046875 C-33.7443583 273.11854631 -36.64981864 280.35716393 -39.88671875 287.45703125 C-42.41710244 293.23696031 -44.6809551 299.13281639 -47 305 C-48.32 305 -49.64 305 -51 305 C-51 304.34 -51 303.68 -51 303 C-51.66 303 -52.32 303 -53 303 C-54.39325954 301.44759659 -55.71380128 299.82970015 -57 298.1875 C-60.25357504 294.11268495 -63.58138877 290.20578462 -67.125 286.375 C-77.91761665 274.62416038 -77.91761665 274.62416038 -81 268 C-81.66 268 -82.32 268 -83 268 C-84.3046875 266.7421875 -84.3046875 266.7421875 -85.875 264.875 C-86.48214844 264.15828125 -87.08929688 263.4415625 -87.71484375 262.703125 C-88.46894531 261.81109375 -89.22304688 260.9190625 -90 260 C-91.04132087 258.80585267 -92.08441622 257.61325133 -93.12890625 256.421875 C-94.23192707 255.15638616 -95.33479098 253.89076054 -96.4375 252.625 C-96.98196777 252.00608887 -97.52643555 251.38717773 -98.08740234 250.74951172 C-102 246.22654385 -102 246.22654385 -102 244 C-102.66 244 -103.32 244 -104 244 C-105.3302109 242.48772933 -106.59027591 240.91330976 -107.8125 239.3125 C-110.66510279 235.58811531 -113.67719204 232.30770429 -117 229 C-118.85603008 226.91107237 -120.64828624 224.77123937 -122.4375 222.625 C-123.400727 221.47499678 -124.36426629 220.32525506 -125.328125 219.17578125 C-125.78638672 218.62873535 -126.24464844 218.08168945 -126.71679688 217.51806641 C-128.34558376 215.59116442 -130.01625832 213.70259476 -131.6875 211.8125 C-134 209 -134 209 -134 207 C-134.99 206.67 -135.98 206.34 -137 206 C-137.66666667 204.33333333 -138.33333333 202.66666667 -139 201 C-139.99 200.67 -140.98 200.34 -142 200 C-143.5078125 198.50390625 -143.5078125 198.50390625 -145.125 196.5625 C-147.85678592 193.3350736 -150.64444642 190.18119333 -153.5 187.0625 C-164.04782497 175.36072495 -164.04782497 175.36072495 -167 169 C-167.66 169 -168.32 169 -169 169 C-169 168.34 -169 167.68 -169 167 C-169.66 167 -170.32 167 -171 167 C-171.103125 167.67546875 -171.20625 168.3509375 -171.3125 169.046875 C-172.14868101 172.63865252 -173.51083592 175.89246935 -175 179.25 C-175.30687744 179.94746338 -175.61375488 180.64492676 -175.92993164 181.36352539 C-178.56209064 187.23687843 -181.52780531 192.89854106 -184.58300781 198.56030273 C-190.22035869 209.04937368 -195.16986118 219.83110243 -199.6640625 230.85546875 C-202.25373015 236.95103149 -205.15385641 242.90536474 -207.99902344 248.88476562 C-209.2312557 251.48868277 -210.43987291 254.10309549 -211.64746094 256.71850586 C-214.21684581 262.27594112 -216.86707455 267.78314417 -219.625 273.25 C-223.10742551 280.16104454 -226.51038354 287.10958707 -229.87957764 294.07653809 C-230.72812859 295.82980942 -231.5800843 297.58143164 -232.43212891 299.33300781 C-235.23388168 305.13984588 -237.88105983 310.9459511 -240.18603516 316.96875 C-241.20572082 319.51337649 -242.37753012 321.78754108 -244 324 C-244.66 324 -245.32 324 -246 324 C-246 323.34 -246 322.68 -246 322 C-246.66 322 -247.32 322 -248 322 C-252 316.58823529 -252 316.58823529 -252 314 C-252.66 314 -253.32 314 -254 314 C-255.21411133 312.63330078 -255.21411133 312.63330078 -256.58203125 310.6953125 C-257.09523926 309.97585449 -257.60844727 309.25639648 -258.13720703 308.51513672 C-258.69005371 307.7263916 -259.24290039 306.93764648 -259.8125 306.125 C-260.99324591 304.46336849 -262.17424244 302.80191504 -263.35546875 301.140625 C-263.96052246 300.28533203 -264.56557617 299.43003906 -265.18896484 298.54882812 C-267.43665194 295.38546154 -269.71745347 292.24702705 -272.00048828 289.10913086 C-276.57264043 282.82121918 -281.06522416 276.49099241 -285.4375 270.0625 C-289.643186 263.88337071 -294.00167921 257.82847037 -298.4375 251.8125 C-299.02909912 251.01013916 -299.62069824 250.20777832 -300.23022461 249.38110352 C-303.08458707 245.52851196 -305.96868815 241.71652239 -309 238 C-310.756532 239.70201893 -312.50507087 241.41115103 -314.25 243.125 C-314.98669922 243.8365625 -314.98669922 243.8365625 -315.73828125 244.5625 C-318.23042706 247.0214172 -320.35630918 249.40374598 -322.234375 252.3671875 C-323.10835937 253.67042969 -323.10835937 253.67042969 -324 255 C-324.66 255 -325.32 255 -326 255 C-326 255.66 -326 256.32 -326 257 C-327.375 258.625 -327.375 258.625 -329 260 C-329.66 260 -330.32 260 -331 260 C-331.33 260.99 -331.66 261.98 -332 263 C-332.66 263 -333.32 263 -334 263 C-334.2578125 263.58265625 -334.515625 264.1653125 -334.78125 264.765625 C-336.09834017 267.1802903 -337.55088384 268.81740177 -339.5 270.75 C-340.1084375 271.36359375 -340.716875 271.9771875 -341.34375 272.609375 C-343 274 -343 274 -345 274 C-345 274.66 -345 275.32 -345 276 C-345.66 276 -346.32 276 -347 276 C-347.33 276.99 -347.66 277.98 -348 279 C-348.66 279 -349.32 279 -350 279 C-350.33 279.99 -350.66 280.98 -351 282 C-351.66 282 -352.32 282 -353 282 C-353 282.66 -353 283.32 -353 284 C-353.66 284 -354.32 284 -355 284 C-355.33 284.99 -355.66 285.98 -356 287 C-356.66 287 -357.32 287 -358 287 C-358.22300781 287.54140625 -358.44601562 288.0828125 -358.67578125 288.640625 C-360.42071316 291.74958923 -362.75266363 294.17910045 -365.1875 296.75 C-366.18057543 297.81167014 -367.17276174 298.87417263 -368.1640625 299.9375 C-368.6477832 300.45570313 -369.13150391 300.97390625 -369.62988281 301.5078125 C-372.06006981 304.15451651 -374.36357637 306.90924101 -376.66015625 309.671875 C-378 311 -378 311 -380 311 C-380.33 311.99 -380.66 312.98 -381 314 C-382.56640625 315.54296875 -382.56640625 315.54296875 -384.5625 317.1875 C-389.82724843 321.65542164 -395.15281583 326.22922374 -399 332 C-399.66 332 -400.32 332 -401 332 C-401.268125 332.58265625 -401.53625 333.1653125 -401.8125 333.765625 C-403.01480991 336.02786601 -404.33825913 337.80576318 -406 339.75 C-406.515625 340.36359375 -407.03125 340.9771875 -407.5625 341.609375 C-409 343 -409 343 -411 343 C-411.33 343.99 -411.66 344.98 -412 346 C-412.66 346 -413.32 346 -414 346 C-414.24621094 346.58523438 -414.49242187 347.17046875 -414.74609375 347.7734375 C-416.19373768 350.34402017 -417.79242482 351.75455693 -420.0625 353.625 C-422.97875712 355.95485552 -422.97875712 355.95485552 -425 359 C-425.66 359 -426.32 359 -427 359 C-427.33 359.99 -427.66 360.98 -428 362 C-428.66 362 -429.32 362 -430 362 C-430.33 362.99 -430.66 363.98 -431 365 C-431.66 365 -432.32 365 -433 365 C-433.226875 365.55558594 -433.45375 366.11117188 -433.6875 366.68359375 C-435.37697184 369.66531043 -437.53502125 371.6870917 -440 374.0625 C-442.68210288 376.65493955 -444.92789175 378.89183762 -447 382 C-447.66 382 -448.32 382 -449 382 C-447.86947268 376.22174927 -445.4160362 372.48968618 -441.9453125 367.77734375 C-439.14674453 363.78179792 -436.83077125 359.54378118 -434.48046875 355.2734375 C-433.99191406 354.52320313 -433.50335938 353.77296875 -433 353 C-432.34 353 -431.68 353 -431 353 C-430.731875 352.27425781 -430.46375 351.54851562 -430.1875 350.80078125 C-429.01051004 348.02478847 -427.65046559 345.7068405 -426 343.1875 C-423.10224061 338.71293109 -420.25204082 334.21452295 -417.4375 329.6875 C-412.7347246 322.14086607 -407.96071811 314.64042875 -403.17797852 307.14428711 C-399.70810309 301.70092889 -396.27423957 296.23766127 -392.875 290.75 C-388.87999591 284.3106842 -384.6941474 278.0111429 -380.46923828 271.72094727 C-374.75446225 263.18743388 -369.34651219 254.47138498 -363.98828125 245.7109375 C-355.44960711 231.75115787 -346.48627421 218.06440063 -337.31640625 204.51171875 C-335.04842887 201.1465154 -332.8445001 197.79968041 -330.875 194.25 C-329 191 -329 191 -327 188.5625 C-325.32851053 186.42090411 -324.32315128 184.72877933 -323.1875 182.3125 C-321.12906728 178.00036822 -318.45795894 174.27084756 -315.67578125 170.3984375 C-313.55717016 167.36620625 -311.78429328 164.23816188 -310 161 C-309.34 160.01 -308.68 159.02 -308 158 C-307.01 158 -306.02 158 -305 158 C-303.74609375 159.4765625 -303.74609375 159.4765625 -302.4375 161.625 C-299.74822561 165.87016382 -296.92904156 169.98137968 -294 174.0625 C-293.56953369 174.66497559 -293.13906738 175.26745117 -292.69555664 175.88818359 C-289.86413057 179.83783147 -286.96669866 183.72739949 -283.9609375 187.546875 C-283 189 -283 189 -283 191 C-282.34 191 -281.68 191 -281 191 C-278.68336156 194.93828536 -276.56641751 198.69235185 -275 203 C-274.34 203 -273.68 203 -273 203 C-271.72093154 204.72043716 -270.52789009 206.50508068 -269.375 208.3125 C-266.5390481 212.66992975 -263.66157818 216.96510479 -260.625 221.1875 C-259.97789062 222.08855469 -259.33078125 222.98960937 -258.6640625 223.91796875 C-257.16464636 226.09245756 -257.16464636 226.09245756 -255 227 C-254.84144531 226.46632813 -254.68289062 225.93265625 -254.51953125 225.3828125 C-252.8796283 220.14599534 -250.77641663 215.41377996 -248.26171875 210.54296875 C-245.64098732 205.2609373 -243.62311531 199.72878491 -241.625 194.1875 C-239.94144903 189.65624047 -237.85079564 185.32784553 -235.80078125 180.953125 C-233.60852272 176.20467568 -231.59877437 171.37929479 -229.5625 166.5625 C-227.05736939 160.65446733 -224.49608765 154.833042 -221.5625 149.125 C-217.93990857 142.07313408 -214.83059343 134.82446876 -211.70263672 127.54199219 C-209.29146073 121.93773686 -206.81480761 116.38105676 -204.1875 110.875 C-202.10123529 106.46904236 -200.2080005 102.06572301 -198.5 97.5 C-194.51716372 86.85733911 -189.42978782 76.69553014 -184.26171875 66.5859375 C-183.04644628 64.09519331 -181.99421456 61.58589139 -181 59 C-179.0625 59.8125 -179.0625 59.8125 -177 61 C-176.67 61.99 -176.34 62.98 -176 64 C-175.34 64 -174.68 64 -174 64 C-170.22585544 67.47788066 -166.91706858 71.3247965 -163.625 75.25 C-162.90328613 76.10597778 -162.90328613 76.10597778 -162.16699219 76.97924805 C-158.88822108 80.88749483 -155.72883066 84.87175855 -152.63671875 88.9296875 C-150.31768076 91.86307684 -147.81496566 94.61888351 -145.28515625 97.37109375 C-144 99 -144 99 -144 101 C-143.01 101.33 -142.02 101.66 -141 102 C-140.5359375 103.2065625 -140.5359375 103.2065625 -140.0625 104.4375 C-139.29536624 107.09951389 -139.29536624 107.09951389 -137.2578125 107.8203125 C-134.15335088 109.44236684 -132.10823976 111.8559078 -129.8125 114.4375 C-129.33055176 114.97173584 -128.84860352 115.50597168 -128.35205078 116.05639648 C-124.50733633 120.35175254 -120.82018428 124.76578441 -117.20703125 129.2578125 C-115.65806365 131.18237047 -114.09132324 133.0926945 -112.51171875 134.9921875 C-111.70347656 135.96414062 -110.89523437 136.93609375 -110.0625 137.9375 C-109.33160156 138.81277344 -108.60070312 139.68804687 -107.84765625 140.58984375 C-106 143 -106 143 -104.93359375 145.25390625 C-104.06455976 147.36042583 -104.06455976 147.36042583 -101 148 C-101 148.66 -101 149.32 -101 150 C-100.18595703 150.29583984 -100.18595703 150.29583984 -99.35546875 150.59765625 C-95.96326477 152.61722711 -93.80638 155.41511563 -91.3125 158.4375 C-90.56516602 159.31631836 -90.56516602 159.31631836 -89.80273438 160.21289062 C-87.65215446 162.78366525 -86.06909485 164.79271544 -85 168 C-84.34 168 -83.68 168 -83 168 C-80 171.46153846 -80 171.46153846 -80 174 C-79.01 174.33 -78.02 174.66 -77 175 C-75.3125 177.0625 -75.3125 177.0625 -74 179 C-73.54560547 177.90945312 -73.54560547 177.90945312 -73.08203125 176.796875 C-72.19865626 174.67677502 -71.31448208 172.55700793 -70.4296875 170.4375 C-69.51225164 168.23164329 -68.60030195 166.0234922 -67.6953125 163.8125 C-64.15551567 155.19386423 -64.15551567 155.19386423 -62.0625 151.25 C-60.15771724 147.55381441 -58.73618025 143.71210438 -57.3125 139.8125 C-53.90490419 130.49113407 -49.95068723 121.42074852 -46.00146484 112.31884766 C-44.33056721 108.44995791 -42.7130573 104.55958424 -41.10546875 100.6640625 C-40.34913293 98.84137334 -39.58027936 97.02384189 -38.80078125 95.2109375 C-36.31641034 89.39578541 -34.11565753 83.53948444 -32.0625 77.5625 C-29.87659359 71.21493706 -27.33657939 65.17567905 -24.4375 59.11328125 C-22.48553737 54.88579696 -20.85995252 50.55862399 -19.21875 46.203125 C-16.77288715 39.77489571 -14.28434831 33.3342342 -11.0625 27.25 C-8.6751685 22.6403152 -6.96912341 17.76659262 -5.19360352 12.89746094 C-4.83286743 11.90987793 -4.83286743 11.90987793 -4.46484375 10.90234375 C-4.254646 10.31960693 -4.04444824 9.73687012 -3.82788086 9.13647461 C-2.63480857 6.05756703 -1.30071492 3.03500149 0 0 Z " fill="#5E19EA" transform="translate(468,32)"/>
<path d="M0 0 C0.495 0.99 0.495 0.99 1 2 C1.99 2.495 1.99 2.495 3 3 C2.60731934 3.41773682 2.21463867 3.83547363 1.81005859 4.26586914 C-0.00319511 6.19661401 -1.81410505 8.12954272 -3.625 10.0625 C-4.24246094 10.71927734 -4.85992187 11.37605469 -5.49609375 12.05273438 C-9.05141412 15.85131351 -12.48066695 19.70020445 -15.75146484 23.74780273 C-16.16348145 24.16102783 -16.57549805 24.57425293 -17 25 C-17.66 25 -18.32 25 -19 25 C-19.495 26.485 -19.495 26.485 -20 28 C-21.56640625 29.54296875 -21.56640625 29.54296875 -23.5625 31.1875 C-28.82724843 35.65542164 -34.15281583 40.22922374 -38 46 C-38.66 46 -39.32 46 -40 46 C-40.268125 46.58265625 -40.53625 47.1653125 -40.8125 47.765625 C-42.01480991 50.02786601 -43.33825913 51.80576318 -45 53.75 C-45.515625 54.36359375 -46.03125 54.9771875 -46.5625 55.609375 C-48 57 -48 57 -50 57 C-50.33 57.99 -50.66 58.98 -51 60 C-51.66 60 -52.32 60 -53 60 C-53.24621094 60.58523438 -53.49242187 61.17046875 -53.74609375 61.7734375 C-55.19373768 64.34402017 -56.79242482 65.75455693 -59.0625 67.625 C-61.97875712 69.95485552 -61.97875712 69.95485552 -64 73 C-64.66 73 -65.32 73 -66 73 C-66.33 73.99 -66.66 74.98 -67 76 C-67.66 76 -68.32 76 -69 76 C-69.33 76.99 -69.66 77.98 -70 79 C-70.66 79 -71.32 79 -72 79 C-72.3403125 79.83337891 -72.3403125 79.83337891 -72.6875 80.68359375 C-74.37697184 83.66531043 -76.53502125 85.6870917 -79 88.0625 C-81.68210288 90.65493955 -83.92789175 92.89183762 -86 96 C-86.66 96 -87.32 96 -88 96 C-86.86947268 90.22174927 -84.4160362 86.48968618 -80.9453125 81.77734375 C-78.14674453 77.78179792 -75.83077125 73.54378118 -73.48046875 69.2734375 C-72.99191406 68.52320313 -72.50335938 67.77296875 -72 67 C-71.34 67 -70.68 67 -70 67 C-69.5978125 65.91138672 -69.5978125 65.91138672 -69.1875 64.80078125 C-68.01051004 62.02478847 -66.65046559 59.7068405 -65 57.1875 C-62.02130284 52.58686216 -59.08643927 47.96356403 -56.1875 43.3125 C-55.33986515 41.95441373 -54.49220856 40.59634102 -53.64453125 39.23828125 C-53.21479004 38.54943848 -52.78504883 37.8605957 -52.34228516 37.15087891 C-50.02187789 33.43265627 -47.69824873 29.7164476 -45.375 26 C-44.52863184 24.64584208 -43.68227634 23.29167625 -42.8359375 21.9375 C-41.92714844 20.4834375 -41.92714844 20.4834375 -41 19 C-40.505 19.99 -40.505 19.99 -40 21 C-39.34 21 -38.68 21 -38 21 C-37 24 -37 24 -37 25 C-35.02 25.33 -33.04 25.66 -31 26 C-31.66 27.32 -32.32 28.64 -33 30 C-32.360625 29.814375 -31.72125 29.62875 -31.0625 29.4375 C-30.381875 29.293125 -29.70125 29.14875 -29 29 C-28.67 29.33 -28.34 29.66 -28 30 C-27.01 29.67 -26.02 29.34 -25 29 C-25 28.34 -25 27.68 -25 27 C-24.01 27 -23.02 27 -22 27 C-22.25136719 26.26136719 -22.50273438 25.52273438 -22.76171875 24.76171875 C-23 22 -23 22 -21.26953125 19.83203125 C-20.05330078 18.83236328 -20.05330078 18.83236328 -18.8125 17.8125 C-18.01457031 17.13832031 -17.21664062 16.46414063 -16.39453125 15.76953125 C-14 14 -14 14 -11.76171875 12.94921875 C-9.64148783 12.06641704 -9.64148783 12.06641704 -9 9 C-8.01 8.67 -7.02 8.34 -6 8 C-5.26676204 5.98491642 -5.26676204 5.98491642 -5 4 C-3.68 4.33 -2.36 4.66 -1 5 C-0.67 3.35 -0.34 1.7 0 0 Z " fill="#5F1CE8" transform="translate(107,318)"/>
<path d="M0 0 C1.32 0 2.64 0 4 0 C2.57911395 3.17568033 0.83591377 5.49398464 -1.5 8.0625 C-3.55815561 10.33432007 -5.29138171 12.43707257 -7 15 C-7.66 15 -8.32 15 -9 15 C-9 15.66 -9 16.32 -9 17 C-10.375 18.625 -10.375 18.625 -12 20 C-12.66 20 -13.32 20 -14 20 C-14.33 20.99 -14.66 21.98 -15 23 C-15.66 23 -16.32 23 -17 23 C-17.77970297 12.13613861 -17.77970297 12.13613861 -14.8125 7.8125 C-12.02605622 6.01679178 -10.21211684 5.52088381 -7 5 C-6.34 4.01 -5.68 3.02 -5 2 C-2.375 1.3125 -2.375 1.3125 0 1 C0 0.67 0 0.34 0 0 Z " fill="#5D17E6" transform="translate(151,272)"/>
<path d="M0 0 C0.639375 0.33 1.27875 0.66 1.9375 1 C3.76794567 2.07271225 3.76794567 2.07271225 5 2 C5.33 1.34 5.66 0.68 6 0 C6.99 0 7.98 0 9 0 C9 1.32 9 2.64 9 4 C8.34 4 7.68 4 7 4 C6.67 4.99 6.34 5.98 6 7 C5.34 7 4.68 7 4 7 C3.67 7.99 3.34 8.98 3 10 C2.34 10 1.68 10 1 10 C0.773125 10.55558594 0.54625 11.11117188 0.3125 11.68359375 C-1.37697184 14.66531043 -3.53502125 16.6870917 -6 19.0625 C-8.68210288 21.65493955 -10.92789175 23.89183762 -13 27 C-13.66 27 -14.32 27 -15 27 C-13.86274236 21.18734982 -11.36734717 17.39482287 -7.88671875 12.64453125 C-4.9927854 8.5882313 -2.50108719 4.30590102 0 0 Z " fill="#7B49E0" transform="translate(34,387)"/>
<path d="M0 0 C0.33 0.66 0.66 1.32 1 2 C1.66 2.33 2.32 2.66 3 3 C2.410979 3.62660522 2.410979 3.62660522 1.81005859 4.26586914 C-0.00319511 6.19661401 -1.81410505 8.12954272 -3.625 10.0625 C-4.24246094 10.71927734 -4.85992187 11.37605469 -5.49609375 12.05273438 C-9.05141412 15.85131351 -12.48066695 19.70020445 -15.75146484 23.74780273 C-16.16348145 24.16102783 -16.57549805 24.57425293 -17 25 C-17.66 25 -18.32 25 -19 25 C-19.33 25.99 -19.66 26.98 -20 28 C-21.62890625 29.38671875 -21.62890625 29.38671875 -23.5625 30.6875 C-24.52349609 31.34298828 -24.52349609 31.34298828 -25.50390625 32.01171875 C-26.24447266 32.50091797 -26.24447266 32.50091797 -27 33 C-27.33 31.68 -27.66 30.36 -28 29 C-27.01 29 -26.02 29 -25 29 C-25 28.34 -25 27.68 -25 27 C-24.01 27 -23.02 27 -22 27 C-22.37705078 25.89205078 -22.37705078 25.89205078 -22.76171875 24.76171875 C-23 22 -23 22 -21.26953125 19.83203125 C-20.45871094 19.16558594 -19.64789063 18.49914062 -18.8125 17.8125 C-18.01457031 17.13832031 -17.21664062 16.46414063 -16.39453125 15.76953125 C-14 14 -14 14 -11.76171875 12.94921875 C-9.64148783 12.06641704 -9.64148783 12.06641704 -9 9 C-8.01 8.67 -7.02 8.34 -6 8 C-5.26676204 5.98491642 -5.26676204 5.98491642 -5 4 C-3.68 4.33 -2.36 4.66 -1 5 C-0.67 3.35 -0.34 1.7 0 0 Z " fill="#7644DF" transform="translate(107,318)"/>
<path d="M0 0 C0.66 0.33 1.32 0.66 2 1 C1.67 2.65 1.34 4.3 1 6 C1.66 6 2.32 6 3 6 C1.99806563 9.79303725 1.18975773 12.71536341 -1 16 C-1.66 16 -2.32 16 -3 16 C-4.07184313 18.59898245 -5.06009996 21.18484525 -5.9296875 23.859375 C-6.24164063 24.81328125 -6.55359375 25.7671875 -6.875 26.75 C-7.18179687 27.71421875 -7.48859375 28.6784375 -7.8046875 29.671875 C-9 32 -9 32 -11.1328125 32.828125 C-11.74898438 32.88484375 -12.36515625 32.9415625 -13 33 C-9.50594291 21.69569765 -4.67338645 10.85707462 0 0 Z " fill="#652EDF" transform="translate(436,111)"/>
<path d="M0 0 C0.33 0.66 0.66 1.32 1 2 C1.66 2.33 2.32 2.66 3 3 C2.67 3.99 2.34 4.98 2 6 C1.34 6 0.68 6 0 6 C-0.66 7.32 -1.32 8.64 -2 10 C-2.66 10 -3.32 10 -4 10 C-4.12375 11.0725 -4.2475 12.145 -4.375 13.25 C-5.26086957 18.56521739 -5.26086957 18.56521739 -7 21 C-7.845625 21.495 -8.69125 21.99 -9.5625 22.5 C-12.16513821 23.75667017 -12.16513821 23.75667017 -12.8125 26.1875 C-12.874375 26.785625 -12.93625 27.38375 -13 28 C-13.99 28 -14.98 28 -16 28 C-16 28.66 -16 29.32 -16 30 C-16.66 29.67 -17.32 29.34 -18 29 C-12.0871194 19.27691761 -6.17116132 9.56214074 0 0 Z " fill="#7948DD" transform="translate(66,337)"/>
<path d="M0 0 C1.65 0.66 3.3 1.32 5 2 C4.06409496 3.1055189 3.12620142 4.20935453 2.1875 5.3125 C1.66542969 5.92738281 1.14335937 6.54226563 0.60546875 7.17578125 C-2.3373102 10.51952278 -2.3373102 10.51952278 -4 12 C-4.66 12 -5.32 12 -6 12 C-6 12.66 -6 13.32 -6 14 C-6.66 14 -7.32 14 -8 14 C-8.33 14.99 -8.66 15.98 -9 17 C-9.66 17 -10.32 17 -11 17 C-11.33 17.99 -11.66 18.98 -12 20 C-12.66 20 -13.32 20 -14 20 C-14 20.66 -14 21.32 -14 22 C-14.66 22 -15.32 22 -16 22 C-16.33 22.99 -16.66 23.98 -17 25 C-17.66 23.68 -18.32 22.36 -19 21 C-17.1875 19 -17.1875 19 -15 17 C-14.01 17 -13.02 17 -12 17 C-11.67 15.35 -11.34 13.7 -11 12 C-10.01 12 -9.02 12 -8 12 C-7.67 11.01 -7.34 10.02 -7 9 C-6.34 9 -5.68 9 -5 9 C-5 8.01 -5 7.02 -5 6 C-3.35 6 -1.7 6 0 6 C0 4.02 0 2.04 0 0 Z " fill="#7E55DD" transform="translate(129,294)"/>
<path d="M0 0 C0.99 0 1.98 0 3 0 C3.66 1.65 4.32 3.3 5 5 C3.68 4.67 2.36 4.34 1 4 C0.34 5.32 -0.32 6.64 -1 8 C-1.66 8 -2.32 8 -3 8 C-2.6596875 9.1446875 -2.6596875 9.1446875 -2.3125 10.3125 C-2 13 -2 13 -3.3125 14.8125 C-5 16 -5 16 -7 16 C-7 16.66 -7 17.32 -7 18 C-7.66 18.66 -8.32 19.32 -9 20 C-9 20.66 -9 21.32 -9 22 C-10.98 22.99 -12.96 23.98 -15 25 C-13.6563724 21.26178857 -11.96690187 18.32594011 -9.625 15.125 C-6.80295219 11.18821397 -4.3356897 7.23884428 -2 3 C-1.34 2.01 -0.68 1.02 0 0 Z " fill="#7A4FDB" transform="translate(160,190)"/>
<path d="M0 0 C0 4.16994748 -1.89017261 7.26960742 -3.6875 10.9375 C-6.6379576 17.06697637 -9.40268285 23.22487478 -11.96875 29.52734375 C-13.18091012 32.43377313 -14.53079931 35.21625132 -16 38 C-16.33 38 -16.66 38 -17 38 C-17 36.02 -17 34.04 -17 32 C-16.34 32 -15.68 32 -15 32 C-14.86722656 31.45859375 -14.73445313 30.9171875 -14.59765625 30.359375 C-13.91051995 27.6467585 -13.17649541 24.94893977 -12.4375 22.25 C-12.16808594 21.26515625 -11.89867187 20.2803125 -11.62109375 19.265625 C-11.41613281 18.51796875 -11.21117187 17.7703125 -11 17 C-10.34 17 -9.68 17 -9 17 C-9 16.01 -9 15.02 -9 14 C-8.34 14 -7.68 14 -7 14 C-7 12.68 -7 11.36 -7 10 C-6.34 10 -5.68 10 -5 10 C-5 9.01 -5 8.02 -5 7 C-4.34 7 -3.68 7 -3 7 C-3.061875 6.21625 -3.12375 5.4325 -3.1875 4.625 C-3.125625 3.75875 -3.06375 2.8925 -3 2 C-2.01 1.34 -1.02 0.68 0 0 Z " fill="#835ADC" transform="translate(280,234)"/>
<path d="M0 0 C1.32 0 2.64 0 4 0 C2.57911395 3.17568033 0.83591377 5.49398464 -1.5 8.0625 C-3.55815561 10.33432007 -5.29138171 12.43707257 -7 15 C-7.66 15 -8.32 15 -9 15 C-9.33 15.66 -9.66 16.32 -10 17 C-10 15.68 -10 14.36 -10 13 C-9.34 13 -8.68 13 -8 13 C-8.33 12.01 -8.66 11.02 -9 10 C-8.01 10 -7.02 10 -6 10 C-6.33 9.34 -6.66 8.68 -7 8 C-8.65 8.33 -10.3 8.66 -12 9 C-11.67 8.01 -11.34 7.02 -11 6 C-9.66923011 5.65657551 -8.33568021 5.32380126 -7 5 C-6.34 4.01 -5.68 3.02 -5 2 C-2.375 1.3125 -2.375 1.3125 0 1 C0 0.67 0 0.34 0 0 Z " fill="#6C35DF" transform="translate(151,272)"/>
<path d="M0 0 C1.32 0 2.64 0 4 0 C4.33 0.66 4.66 1.32 5 2 C6.2065625 2.3403125 6.2065625 2.3403125 7.4375 2.6875 C10 4 10 4 11.3125 7.625 C11.539375 8.73875 11.76625 9.8525 12 11 C12.99 11 13.98 11 15 11 C15.66 13.31 16.32 15.62 17 18 C16.34 18.33 15.68 18.66 15 19 C14.48050781 18.33613281 13.96101563 17.67226563 13.42578125 16.98828125 C9.02878671 11.33178001 9.02878671 11.33178001 4.125 6.125 C2.1413511 4.1413511 1.04967155 2.57646654 0 0 Z " fill="#7241E1" transform="translate(349,257)"/>
<path d="M0 0 C4.07485526 3.70890952 7.09093457 8.08463812 10.25 12.5625 C10.80429688 13.33013672 11.35859375 14.09777344 11.9296875 14.88867188 C12.71472656 15.99758789 12.71472656 15.99758789 13.515625 17.12890625 C13.99290039 17.79994385 14.47017578 18.47098145 14.96191406 19.16235352 C16 21 16 21 16 24 C13.525 23.01 13.525 23.01 11 22 C11 20.35 11 18.7 11 17 C10.21625 16.773125 9.4325 16.54625 8.625 16.3125 C6 15 6 15 4.6875 12.5625 C4 10 4 10 4 7 C3.01 7 2.02 7 1 7 C0.67 4.69 0.34 2.38 0 0 Z " fill="#7646D9" transform="translate(168,199)"/>
<path d="M0 0 C0.20086443 3.71599191 0.1519437 4.77208445 -2 8 C-2.66 8 -3.32 8 -4 8 C-4.33 8.99 -4.66 9.98 -5 11 C-6.62890625 12.38671875 -6.62890625 12.38671875 -8.5625 13.6875 C-9.52349609 14.34298828 -9.52349609 14.34298828 -10.50390625 15.01171875 C-10.99761719 15.33785156 -11.49132812 15.66398437 -12 16 C-12.33 14.68 -12.66 13.36 -13 12 C-12.01 12 -11.02 12 -10 12 C-10 11.34 -10 10.68 -10 10 C-9.01 10 -8.02 10 -7 10 C-7.268125 9.278125 -7.53625 8.55625 -7.8125 7.8125 C-8 5 -8 5 -5.75 2.1875 C-3 0 -3 0 0 0 Z " fill="#6329DF" transform="translate(92,335)"/>
<path d="M0 0 C1.9375 0.8125 1.9375 0.8125 4 2 C4.33 2.99 4.66 3.98 5 5 C5.66 5 6.32 5 7 5 C9.625 7.3125 9.625 7.3125 12 10 C12 10.99 12 11.98 12 13 C10.02 12.34 8.04 11.68 6 11 C5.67 11.66 5.34 12.32 5 13 C3.4375 10.6875 3.4375 10.6875 2 8 C2.33 7.01 2.66 6.02 3 5 C1.68 5 0.36 5 -1 5 C-0.67 3.35 -0.34 1.7 0 0 Z " fill="#7544E2" transform="translate(287,91)"/>
<path d="M0 0 C0.6875 1.8125 0.6875 1.8125 1 4 C-0.4375 5.75 -0.4375 5.75 -2 7 C-1.34 7 -0.68 7 0 7 C-0.59283087 10.60571107 -2.02741777 12.54429438 -4.4375 15.25 C-5.05496094 15.95640625 -5.67242188 16.6628125 -6.30859375 17.390625 C-8 19 -8 19 -10 19 C-8.82958864 13.0178975 -6.1573318 9.02232363 -2.55859375 4.13671875 C-0.97750523 2.09316987 -0.97750523 2.09316987 0 0 Z " fill="#8769D4" transform="translate(29,395)"/>
<path d="M0 0 C0.33 0 0.66 0 1 0 C1 2.97 1 5.94 1 9 C0.34 9 -0.32 9 -1 9 C-1.33 10.32 -1.66 11.64 -2 13 C-1.34 13.33 -0.68 13.66 0 14 C-0.99 14.495 -0.99 14.495 -2 15 C-3.04808041 16.97522846 -4.0520411 18.97481509 -5 21 C-5.66 21 -6.32 21 -7 21 C-7.40370755 16.41319512 -6.06142124 13.46690936 -4.0625 9.375 C-1.82413974 4.77170541 -1.82413974 4.77170541 0 0 Z " fill="#723ED8" transform="translate(446,85)"/>
<path d="M0 0 C0.66 0 1.32 0 2 0 C0.86480833 6.29515378 -1.00886019 11.5032378 -3.7578125 17.26953125 C-5.49868166 21.09615875 -6.75059323 24.98874669 -8 29 C-8.33 29 -8.66 29 -9 29 C-9.44517905 23.65785139 -8.59391075 20.60966743 -6.0234375 15.93359375 C-4.67639658 13.38861186 -3.82560568 10.75201894 -3 8 C-2.34 8 -1.68 8 -1 8 C-0.67 5.36 -0.34 2.72 0 0 Z " fill="#8A64DD" transform="translate(509,107)"/>
<path d="M0 0 C0.99 0.33 1.98 0.66 3 1 C3.375 4.1875 3.375 4.1875 3 8 C1.18811972 10.1403498 -0.65801167 11.38988302 -3 13 C-3 12.34 -3 11.68 -3 11 C-3.66 11 -4.32 11 -5 11 C-4.67 10.01 -4.34 9.02 -4 8 C-3.34 8 -2.68 8 -2 8 C-2.061875 6.576875 -2.061875 6.576875 -2.125 5.125 C-2 2 -2 2 0 0 Z " fill="#7040DD" transform="translate(32,391)"/>
<path d="M0 0 C0 2.84585459 -0.34648931 4.38434028 -1.3125 7 C-1.55613281 7.680625 -1.79976562 8.36125 -2.05078125 9.0625 C-3.08145231 11.16625656 -4.2654415 12.44521367 -6 14 C-6.66 13.01 -7.32 12.02 -8 11 C-8.33 11 -8.66 11 -9 11 C-9 8.69 -9 6.38 -9 4 C-8.34 4 -7.68 4 -7 4 C-7 4.99 -7 5.98 -7 7 C-6.34 7 -5.68 7 -5 7 C-4.67 5.68 -4.34 4.36 -4 3 C-3.34 3 -2.68 3 -2 3 C-2 2.34 -2 1.68 -2 1 C-1.34 0.67 -0.68 0.34 0 0 Z " fill="#5919DE" transform="translate(539,35)"/>
<path d="M0 0 C0.66 0.33 1.32 0.66 2 1 C1.67 1.99 1.34 2.98 1 4 C0.34 4 -0.32 4 -1 4 C-0.731875 4.886875 -0.46375 5.77375 -0.1875 6.6875 C0 10 0 10 -2.3125 12.875 C-5 15 -5 15 -7 15 C-7.33 15.99 -7.66 16.98 -8 18 C-8.66 17.67 -9.32 17.34 -10 17 C-6.84985504 11.20909522 -3.55506117 5.55194659 0 0 Z " fill="#6F3FDF" transform="translate(110,268)"/>
<path d="M0 0 C1.125 3.75 1.125 3.75 0 6 C-0.66 6 -1.32 6 -2 6 C-2 7.98 -2 9.96 -2 12 C-2.61875 12.04125 -3.2375 12.0825 -3.875 12.125 C-4.57625 12.41375 -5.2775 12.7025 -6 13 C-7.3045656 15.99615946 -7.3045656 15.99615946 -8 19 C-8.99 18.67 -9.98 18.34 -11 18 C-8.9147525 13.61900683 -6.5336826 9.63985957 -3.8125 5.625 C-3.09707031 4.56539062 -2.38164063 3.50578125 -1.64453125 2.4140625 C-1.10183594 1.61742187 -0.55914062 0.82078125 0 0 Z " fill="#7B4ADC" transform="translate(129,239)"/>
<path d="M0 0 C13.86 0.495 13.86 0.495 28 1 C28 1.33 28 1.66 28 2 C19.42 2 10.84 2 2 2 C2 3.65 2 5.3 2 7 C0.35 7.33 -1.3 7.66 -3 8 C-1.125 2.25 -1.125 2.25 0 0 Z " fill="#5F27D8" transform="translate(468,33)"/>
<path d="M0 0 C0.99 0.66 1.98 1.32 3 2 C2.79375 2.928125 2.5875 3.85625 2.375 4.8125 C1.63307034 8.15173402 1.63307034 8.15173402 4 11 C3.34 11.66 2.68 12.32 2 13 C0.02 10.36 -1.96 7.72 -4 5 C-4.99 5.66 -5.98 6.32 -7 7 C-7 5.68 -7 4.36 -7 3 C-3.535 2.505 -3.535 2.505 0 2 C0 1.34 0 0.68 0 0 Z " fill="#7342DC" transform="translate(163,265)"/>
<path d="M0 0 C1 2 1 2 0.36328125 3.92578125 C0.01652344 4.71339844 -0.33023438 5.50101562 -0.6875 6.3125 C-3.2490257 12.40839565 -5.13264948 18.6629275 -7 25 C-7.33 25 -7.66 25 -8 25 C-8.30162228 19.16863587 -7.81062225 16.20485603 -5 11 C-4.18173628 8.37273167 -3.44988018 5.73429289 -2.74609375 3.07421875 C-2 1 -2 1 0 0 Z " fill="#865DDB" transform="translate(523,74)"/>
<path d="M0 0 C0.99 0.33 1.98 0.66 3 1 C3 3.64 3 6.28 3 9 C2.01 9.495 2.01 9.495 1 10 C1 9.34 1 8.68 1 8 C0.01 8.66 -0.98 9.32 -2 10 C-2 10.66 -2 11.32 -2 12 C-5 11 -5 11 -7 8 C-5.02 7.34 -3.04 6.68 -1 6 C-1.020625 5.195625 -1.04125 4.39125 -1.0625 3.5625 C-1 1 -1 1 0 0 Z " fill="#5F1DE3" transform="translate(42,379)"/>
<path d="M0 0 C0.99 0.33 1.98 0.66 3 1 C2.4352699 4.90829085 0.57868029 6.89920223 -2.0625 9.75 C-3.16271484 10.94882812 -3.16271484 10.94882812 -4.28515625 12.171875 C-4.85105469 12.77515625 -5.41695313 13.3784375 -6 14 C-7.32 13.34 -8.64 12.68 -10 12 C-9.34 11.67 -8.68 11.34 -8 11 C-7.34 11.33 -6.68 11.66 -6 12 C-6.33 10.35 -6.66 8.7 -7 7 C-6.01 6.67 -5.02 6.34 -4 6 C-3.67 5.34 -3.34 4.68 -3 4 C-2.34 4.33 -1.68 4.66 -1 5 C-0.67 3.35 -0.34 1.7 0 0 Z " fill="#7141DD" transform="translate(75,350)"/>
<path d="M0 0 C0.66 0 1.32 0 2 0 C-0.19037174 6.72045875 -2.55765661 13.36724003 -5 20 C-5.99 19.67 -6.98 19.34 -8 19 C-8 18.34 -8 17.68 -8 17 C-7.34 17 -6.68 17 -6 17 C-6 15.02 -6 13.04 -6 11 C-5.34 11 -4.68 11 -4 11 C-3.67 9.35 -3.34 7.7 -3 6 C-2.34 6 -1.68 6 -1 6 C-0.67 4.02 -0.34 2.04 0 0 Z " fill="#8359DC" transform="translate(495,143)"/>
<path d="M0 0 C0.33 0 0.66 0 1 0 C1.33663062 3.70293685 1.47736015 5.39534381 -0.875 8.375 C-3 10 -3 10 -5 10 C-5 11.65 -5 13.3 -5 15 C-6.65 15.33 -8.3 15.66 -10 16 C-3.10344828 4.36781609 -3.10344828 4.36781609 0 0 Z " fill="#8057DA" transform="translate(90,300)"/>
<path d="M0 0 C1.74661627 3.49323253 0.84070924 7.2841935 0 11 C-2.16325734 14.46121174 -3.12224793 15.70741598 -7 17 C-2.38461538 2.38461538 -2.38461538 2.38461538 0 0 Z " fill="#7E52DD" transform="translate(229,221)"/>
<path d="M0 0 C1.65 0.33 3.3 0.66 5 1 C5 1.99 5 2.98 5 4 C4.34 4 3.68 4 3 4 C3 3.34 3 2.68 3 2 C2.34 2 1.68 2 1 2 C0.9175 2.639375 0.835 3.27875 0.75 3.9375 C-0.29520372 8.20541517 -2.14091826 12.03107667 -4 16 C-4.33 16 -4.66 16 -5 16 C-5.14285714 8.57142857 -5.14285714 8.57142857 -4 5 C-2.68 5 -1.36 5 0 5 C0 3.35 0 1.7 0 0 Z " fill="#825ADE" transform="translate(296,197)"/>
<path d="M0 0 C0.33 0.66 0.66 1.32 1 2 C0.36971413 3.68076231 -0.29788106 5.34795544 -1 7 C-1 7.66 -1 8.32 -1 9 C-1.99 9.66 -2.98 10.32 -4 11 C-4.72965366 13.56282742 -4.72965366 13.56282742 -5 16 C-6.98 16.66 -8.96 17.32 -11 18 C-11 17.34 -11 16.68 -11 16 C-10.34 16 -9.68 16 -9 16 C-8.74476562 15.29488281 -8.48953125 14.58976562 -8.2265625 13.86328125 C-6.88449478 10.7303652 -5.23270133 8.04285575 -3.375 5.1875 C-2.74335937 4.21167969 -2.11171875 3.23585938 -1.4609375 2.23046875 C-0.73777344 1.12638672 -0.73777344 1.12638672 0 0 Z " fill="#7A52DB" transform="translate(46,369)"/>
<path d="M0 0 C0.66 0.99 1.32 1.98 2 3 C1.34 3 0.68 3 0 3 C0.20625 3.928125 0.4125 4.85625 0.625 5.8125 C1 9 1 9 -1 12 C-1.99 12 -2.98 12 -4 12 C-4.66 13.32 -5.32 14.64 -6 16 C-6 12.39889127 -4.96897064 10.18199896 -3.5625 6.875 C-3.11003906 5.79992187 -2.65757812 4.72484375 -2.19140625 3.6171875 C-1 1 -1 1 0 0 Z " fill="#7B4EDD" transform="translate(221,240)"/>
<path d="M0 0 C0.33 0 0.66 0 1 0 C0.98839844 0.62648437 0.97679687 1.25296875 0.96484375 1.8984375 C0.95582031 2.71570313 0.94679688 3.53296875 0.9375 4.375 C0.92589844 5.18710938 0.91429687 5.99921875 0.90234375 6.8359375 C0.85533666 9.04937142 0.85533666 9.04937142 2 11 C1.195625 11.45375 0.39125 11.9075 -0.4375 12.375 C-3.08856572 13.74725665 -3.08856572 13.74725665 -4 16 C-4.66 16 -5.32 16 -6 16 C-4.27933894 10.55123997 -2.15294651 5.28830549 0 0 Z " fill="#7649DD" transform="translate(269,131)"/>
<path d="M0 0 C2 2 2 2 2 5 C1.34 5 0.68 5 0 5 C-0.66 8.63 -1.32 12.26 -2 16 C-2.99 16.33 -3.98 16.66 -5 17 C-6.36420006 12.90739982 -4.7664515 10.52987341 -3.0625 6.8125 C-2.77181641 6.15830078 -2.48113281 5.50410156 -2.18164062 4.83007812 C-1.46304657 3.21618656 -0.7326412 1.60756345 0 0 Z " fill="#7E52D9" transform="translate(411,171)"/>
<path d="M0 0 C0.99 0.33 1.98 0.66 3 1 C2.44449305 4.59905908 1.25112752 5.99909799 -1.5625 8.25 C-2.20316406 8.77078125 -2.84382813 9.2915625 -3.50390625 9.828125 C-3.99761719 10.21484375 -4.49132813 10.6015625 -5 11 C-5.33 9.02 -5.66 7.04 -6 5 C-4.68 5.33 -3.36 5.66 -2 6 C-1.855625 5.195625 -1.71125 4.39125 -1.5625 3.5625 C-1 1 -1 1 0 0 Z " fill="#7240DE" transform="translate(50,377)"/>
<path d="M0 0 C0.33 0.66 0.66 1.32 1 2 C1.66 2.33 2.32 2.66 3 3 C2.67 3.99 2.34 4.98 2 6 C1.34 6 0.68 6 0 6 C-0.66 7.32 -1.32 8.64 -2 10 C-2.66 10 -3.32 10 -4 10 C-4 10.66 -4 11.32 -4 12 C-4.99 12.33 -5.98 12.66 -7 13 C-5.35821735 8.22390502 -2.73453298 4.20617096 0 0 Z " fill="#7C51E2" transform="translate(66,337)"/>
<path d="M0 0 C0.66 0.66 1.32 1.32 2 2 C1.04381086 4.4175348 0.08513489 6.83403266 -0.875 9.25 C-1.14441406 9.93191406 -1.41382813 10.61382812 -1.69140625 11.31640625 C-3.01007636 14.62916287 -4.40344852 17.80689703 -6 21 C-6 18.03 -6 15.06 -6 12 C-5.34 12 -4.68 12 -4 12 C-4 11.01 -4 10.02 -4 9 C-3.34 9 -2.68 9 -2 9 C-1.855625 7.88625 -1.71125 6.7725 -1.5625 5.625 C-1 2 -1 2 0 0 Z " fill="#7F56DA" transform="translate(447,263)"/>
<path d="M0 0 C0.66 0.99 1.32 1.98 2 3 C0.46269697 7.93555182 -1.595431 12.41986857 -4 17 C-4.66 17 -5.32 17 -6 17 C-4.13236819 11.27789404 -2.14710968 5.62338249 0 0 Z " fill="#845CD9" transform="translate(464,42)"/>
<path d="M0 0 C2.31 0 4.62 0 7 0 C7.66 2.64 8.32 5.28 9 8 C8.01 8 7.02 8 6 8 C4.39453125 6.25 4.39453125 6.25 2.8125 4 C2.28269531 3.2575 1.75289063 2.515 1.20703125 1.75 C0.80871094 1.1725 0.41039062 0.595 0 0 Z " fill="#7B49DF" transform="translate(407,324)"/>
<path d="M0 0 C2.4375 0.6875 2.4375 0.6875 5 2 C5.8125 4.625 5.8125 4.625 6 7 C6.99 7 7.98 7 9 7 C11.125 11.625 11.125 11.625 10 15 C8.32742872 12.87941855 6.66184582 10.75395924 5 8.625 C4.28457031 7.72007812 4.28457031 7.72007812 3.5546875 6.796875 C0 2.2265625 0 2.2265625 0 0 Z " fill="#875CDF" transform="translate(192,314)"/>
<path d="M0 0 C0.99 0 1.98 0 3 0 C1.55676531 4.73789165 -0.37226733 8.98858151 -2.625 13.375 C-2.94984375 14.01566406 -3.2746875 14.65632813 -3.609375 15.31640625 C-4.40257407 16.87947501 -5.20077031 18.44000622 -6 20 C-7 18 -7 18 -6.0625 14.875 C-5.711875 13.92625 -5.36125 12.9775 -5 12 C-4.34 12 -3.68 12 -3 12 C-2.67 9.69 -2.34 7.38 -2 5 C-1.34 5 -0.68 5 0 5 C0 3.35 0 1.7 0 0 Z " fill="#926DDD" transform="translate(243,308)"/>
<path d="M0 0 C0.99 0 1.98 0 3 0 C3 0.66 3 1.32 3 2 C3.66 2 4.32 2 5 2 C8 5.46153846 8 5.46153846 8 8 C8.99 8.33 9.98 8.66 11 9 C11.33 9.99 11.66 10.98 12 12 C11.34 12 10.68 12 10 12 C8 10 8 10 7 8 C5.67532254 7.3162955 4.34136367 6.65035814 3 6 C0.8614515 3.8614515 0.57344937 2.86724686 0 0 Z " fill="#794BDB" transform="translate(380,198)"/>
<path d="M0 0 C7 8.44827586 7 8.44827586 7 12 C7.66 12 8.32 12 9 12 C9 12.66 9 13.32 9 14 C8.01 14 7.02 14 6 14 C4.61328125 12.5390625 4.61328125 12.5390625 3.3125 10.625 C2.65701172 9.68527344 2.65701172 9.68527344 1.98828125 8.7265625 C1 7 1 7 1 5 C0.34 5 -0.32 5 -1 5 C-0.67 3.35 -0.34 1.7 0 0 Z " fill="#855DDB" transform="translate(186,223)"/>
<path d="M0 0 C1.29858939 0.56775536 2.58870441 1.15491663 3.875 1.75 C4.59429687 2.07484375 5.31359375 2.3996875 6.0546875 2.734375 C8.3370674 4.21929686 9.00375898 5.50415408 10 8 C9.01 8.66 8.02 9.32 7 10 C5.82739389 8.71372289 4.6620717 7.42080217 3.5 6.125 C2.8503125 5.40570313 2.200625 4.68640625 1.53125 3.9453125 C0 2 0 2 0 0 Z " fill="#7C4FE1" transform="translate(366,276)"/>
<path d="M0 0 C1.9375 0.375 1.9375 0.375 4 1 C4.33 1.66 4.66 2.32 5 3 C5.99 3 6.98 3 8 3 C8.66 5.31 9.32 7.62 10 10 C9.01 10.495 9.01 10.495 8 11 C6.66375099 9.35653302 5.33107149 7.71016314 4 6.0625 C3.2575 5.14597656 2.515 4.22945313 1.75 3.28515625 C0 1 0 1 0 0 Z " fill="#835ADD" transform="translate(356,265)"/>
<path d="M0 0 C4.21814817 3.9700218 7.61227103 8.30840284 11 13 C9.02 13 7.04 13 5 13 C4.67 11.02 4.34 9.04 4 7 C3.34 7 2.68 7 2 7 C1.34 4.69 0.68 2.38 0 0 Z " fill="#8B67DE" transform="translate(307,112)"/>
<path d="M0 0 C0.33 0.66 0.66 1.32 1 2 C1.99 2.33 2.98 2.66 4 3 C4.309375 3.804375 4.61875 4.60875 4.9375 5.4375 C5.76608159 8.14157493 5.76608159 8.14157493 8.125 9.3125 C8.74375 9.539375 9.3625 9.76625 10 10 C9.34 10.66 8.68 11.32 8 12 C7.67 11.34 7.34 10.68 7 10 C3.97065509 9.34227572 3.97065509 9.34227572 1 9 C1.66 8.67 2.32 8.34 3 8 C2.505 7.4225 2.01 6.845 1.5 6.25 C0 4 0 4 0 0 Z " fill="#8257E0" transform="translate(323,131)"/>
<path d="M0 0 C0.33 0 0.66 0 1 0 C1.08159574 4.16138263 0.98248524 7.9472484 0 12 C-0.66 12 -1.32 12 -2 12 C-2 12.66 -2 13.32 -2 14 C-2.99 14.33 -3.98 14.66 -5 15 C-3.33333333 10 -1.66666667 5 0 0 Z " fill="#8356DD" transform="translate(435,112)"/>
<path d="M0 0 C0.598125 0.309375 1.19625 0.61875 1.8125 0.9375 C4.70043217 2.34020991 6.76781367 3 10 3 C9.34 5.31 8.68 7.62 8 10 C7.67 9.34 7.34 8.68 7 8 C6.34 8 5.68 8 5 8 C3.7109375 6.25 3.7109375 6.25 2.375 4 C1.92898437 3.2575 1.48296875 2.515 1.0234375 1.75 C0.68570313 1.1725 0.34796875 0.595 0 0 Z " fill="#7845E2" transform="translate(209,338)"/>
<path d="M0 0 C0 1.98 0 3.96 0 6 C-0.66 6 -1.32 6 -2 6 C-2.33 6.99 -2.66 7.98 -3 9 C-3.66 9 -4.32 9 -5 9 C-5.36666667 3.5 -5.36666667 3.5 -3.625 1.125 C-2 0 -2 0 0 0 Z " fill="#713DE3" transform="translate(139,286)"/>
<path d="M0 0 C1.32 0.33 2.64 0.66 4 1 C4 3.97 4 6.94 4 10 C3.01 10.495 3.01 10.495 2 11 C0.68 9.02 -0.64 7.04 -2 5 C-1.01 5 -0.02 5 1 5 C0.67 3.35 0.34 1.7 0 0 Z " fill="#6B33E0" transform="translate(313,209)"/>
<path d="M0 0 C0.99 0 1.98 0 3 0 C2.9375 2.1875 2.9375 2.1875 2 5 C-0.1717219 6.93157957 -2.52601047 8.48201687 -5 10 C-5.33 8.68 -5.66 7.36 -6 6 C-5.01 6 -4.02 6 -3 6 C-3 5.34 -3 4.68 -3 4 C-2.01 4 -1.02 4 0 4 C0 2.68 0 1.36 0 0 Z " fill="#7B51DA" transform="translate(85,341)"/>
<path d="M0 0 C0.66 0.33 1.32 0.66 2 1 C1.54803755 2.60597325 1.08817673 4.20972508 0.625 5.8125 C0.36976563 6.70582031 0.11453125 7.59914062 -0.1484375 8.51953125 C-1 11 -1 11 -3 14 C-3.29341888 8.32723489 -3.00559652 5.00932754 0 0 Z " fill="#8053DA" transform="translate(460,230)"/>
<path d="M0 0 C0.8125 1.6875 0.8125 1.6875 1 4 C-0.64488294 5.68816933 -2.31337542 7.35353315 -4 9 C-4.87238858 11.67790896 -4.87238858 11.67790896 -5 14 C-6.32 13.67 -7.64 13.34 -9 13 C-8.51789063 12.31292969 -8.03578125 11.62585938 -7.5390625 10.91796875 C-6.90742188 10.01691406 -6.27578125 9.11585938 -5.625 8.1875 C-4.99851563 7.29417969 -4.37203125 6.40085938 -3.7265625 5.48046875 C-2.46449761 3.66732122 -1.22541192 1.83811789 0 0 Z " fill="#8F6ADD" transform="translate(142,219)"/>
<path d="M0 0 C3.28788824 3.11016455 5.83735988 6.01618925 8 10 C6.68 10 5.36 10 4 10 C3.34 9.01 2.68 8.02 2 7 C1.34 6.67 0.68 6.34 0 6 C0 4.02 0 2.04 0 0 Z " fill="#8259DD" transform="translate(348,159)"/>
<path d="M0 0 C-1.33333333 2.66666667 -2.66666667 5.33333333 -4 8 C-4.33 8 -4.66 8 -5 8 C-5.59732819 5.23735711 -6 2.83967231 -6 0 C-3 -1 -3 -1 0 0 Z " fill="#6527E9" transform="translate(291,96)"/>
<path d="M0 0 C1.75 0.125 1.75 0.125 4 1 C5.40113616 2.95309888 6.73339467 4.95708818 8 7 C9.62351109 8.79394446 9.62351109 8.79394446 11 10 C10.34 10.66 9.68 11.32 9 12 C9 11.34 9 10.68 9 10 C8.01 9.67 7.02 9.34 6 9 C5.33333333 7.33333333 4.66666667 5.66666667 4 4 C3.01 3.67 2.02 3.34 1 3 C0.67 2.01 0.34 1.02 0 0 Z " fill="#895FDB" transform="translate(325,229)"/>
<path d="M0 0 C0.66666667 2.66666667 1.33333333 5.33333333 2 8 C-0.31 9.65 -2.62 11.3 -5 13 C-3.58192622 8.52761347 -1.88695626 4.28853694 0 0 Z " fill="#8152DC" transform="translate(251,171)"/>
<path d="M0 0 C1.04005702 3.38018531 1.08004482 6.4780279 1 10 C0.01 10 -0.98 10 -2 10 C-2 10.66 -2 11.32 -2 12 C-2.99 12.33 -3.98 12.66 -5 13 C-3.58192622 8.52761347 -1.88695626 4.28853694 0 0 Z " fill="#8B60DE" transform="translate(259,153)"/>
<path d="M0 0 C0.84062397 3.09773244 1.08935201 5.78332751 1 9 C0.34 9 -0.32 9 -1 9 C-1 10.65 -1 12.3 -1 14 C-1.99 14.495 -1.99 14.495 -3 15 C-4.18956883 10.84773144 -3.78960563 8.61274007 -2.0625 4.6875 C-1.68222656 3.80449219 -1.30195313 2.92148438 -0.91015625 2.01171875 C-0.60980469 1.34785156 -0.30945313 0.68398437 0 0 Z " fill="#8559E1" transform="translate(422,144)"/>
<path d="M0 0 C0.22036864 3.85645121 -0.39644899 6.49223216 -2 10 C-2.66 9.67 -3.32 9.34 -4 9 C-4.59355614 6.35139573 -4.74209269 3.70802678 -5 1 C-3 0 -3 0 0 0 Z " fill="#7140D9" transform="translate(230,339)"/>
<path d="M0 0 C-0.66 1.65 -1.32 3.3 -2 5 C-2.99 4.67 -3.98 4.34 -5 4 C-5 3.34 -5 2.68 -5 2 C-5.66 2 -6.32 2 -7 2 C-7 1.34 -7 0.68 -7 0 C-3.86650268 -1.04449911 -3.01031744 -0.93423645 0 0 Z " fill="#845DD5" transform="translate(422,333)"/>
<path d="M0 0 C0.66 0 1.32 0 2 0 C2 0.66 2 1.32 2 2 C4.64738916 3.4606285 5.89448334 4 9 4 C9 5.65 9 7.3 9 9 C6.25068173 8.31267043 4.46581179 7.64439778 2.77734375 5.30859375 C1.79675344 3.56883675 0.89311945 1.7862389 0 0 Z " fill="#7A49DD" transform="translate(180,297)"/>
<path d="M0 0 C0.66 0.33 1.32 0.66 2 1 C0.78623966 6.32187227 -0.72623708 11.03906272 -3 16 C-4.41687119 11.74938644 -3.19320039 9.28148375 -2 5 C-1.34 5 -0.68 5 0 5 C0 3.35 0 1.7 0 0 Z " fill="#8D65DB" transform="translate(454,245)"/>
<path d="M0 0 C1.2380014 3.57644848 0.74926071 6.33694766 0 10 C-1.32 10 -2.64 10 -4 10 C-3.52449439 8.51965236 -3.04448784 7.04074979 -2.5625 5.5625 C-2.29566406 4.73878906 -2.02882812 3.91507813 -1.75390625 3.06640625 C-1 1 -1 1 0 0 Z " fill="#8054DD" transform="translate(237,203)"/>
<path d="M0 0 C0.33 0 0.66 0 1 0 C1 2.97 1 5.94 1 9 C0.34 9 -0.32 9 -1 9 C-1.33 9.99 -1.66 10.98 -2 12 C-2.66 12 -3.32 12 -4 12 C-2.66666667 8 -1.33333333 4 0 0 Z " fill="#7C51DB" transform="translate(446,85)"/>
<path d="M0 0 C1 2 1 2 0.375 4.875 C-1.18787818 8.42699587 -2.83496039 9.83444658 -6 12 C-6 8.36804504 -5.04546845 7.25286089 -3 4.3125 C-2.443125 3.50425781 -1.88625 2.69601562 -1.3125 1.86328125 C-0.879375 1.24839844 -0.44625 0.63351562 0 0 Z " fill="#9370DF" transform="translate(74,325)"/>
<path d="M0 0 C1 4 1 4 -0.25 6.5625 C-1.72443872 8.6161825 -3.1820479 10.26468208 -5 12 C-5.33 12.66 -5.66 13.32 -6 14 C-6.66 13.67 -7.32 13.34 -8 13 C-5.36 8.71 -2.72 4.42 0 0 Z " fill="#8D68DD" transform="translate(99,286)"/>
<path d="M0 0 C0.66 0.33 1.32 0.66 2 1 C1.34 2.98 0.68 4.96 0 7 C-0.66 7 -1.32 7 -2 7 C-2 7.99 -2 8.98 -2 10 C-2.66 10 -3.32 10 -4 10 C-4.33 10.66 -4.66 11.32 -5 12 C-4.20590074 8.02950369 -2.89786569 2.89786569 0 0 Z " fill="#8B65DC" transform="translate(401,197)"/>
<path d="M0 0 C0.33 0.66 0.66 1.32 1 2 C0.00390625 4.3828125 0.00390625 4.3828125 -1.4375 7.125 C-1.91058594 8.03507813 -2.38367188 8.94515625 -2.87109375 9.8828125 C-3.24363281 10.58148438 -3.61617188 11.28015625 -4 12 C-5 10 -5 10 -4.51171875 7.87109375 C-4.23972656 7.06800781 -3.96773438 6.26492187 -3.6875 5.4375 C-3.42324219 4.63183594 -3.15898437 3.82617188 -2.88671875 2.99609375 C-2 1 -2 1 0 0 Z " fill="#9370E0" transform="translate(290,213)"/>
<path d="M0 0 C0.99 0 1.98 0 3 0 C2.54738642 1.43931117 2.08767021 2.87638999 1.625 4.3125 C1.36976563 5.11300781 1.11453125 5.91351563 0.8515625 6.73828125 C0 9 0 9 -2 12 C-2.33 10.35 -2.66 8.7 -3 7 C-2.34 7 -1.68 7 -1 7 C-0.67 4.69 -0.34 2.38 0 0 Z " fill="#8155DF" transform="translate(486,163)"/>
<path d="M0 0 C2.5 2.25 2.5 2.25 5 5 C5 6.32 5 7.64 5 9 C4.67 8.34 4.34 7.68 4 7 C3.01 7 2.02 7 1 7 C0.67 4.69 0.34 2.38 0 0 Z " fill="#7744D9" transform="translate(333,142)"/>
<path d="M0 0 C-0.66 2.31 -1.32 4.62 -2 7 C-3.32 7.33 -4.64 7.66 -6 8 C-5.40138258 5.64828869 -4.73075648 3.3140622 -4 1 C-2 0 -2 0 0 0 Z " fill="#6A37DB" transform="translate(429,136)"/>
<path d="M0 0 C0.66 0 1.32 0 2 0 C2 0.66 2 1.32 2 2 C3.98 2.66 5.96 3.32 8 4 C7.67 5.32 7.34 6.64 7 8 C6.34 8 5.68 8 5 8 C5 7.34 5 6.68 5 6 C4.34 6 3.68 6 3 6 C2.01 4.02 1.02 2.04 0 0 Z " fill="#8261D4" transform="translate(217,348)"/>
<path d="M0 0 C0 3.69418201 -1.28179295 5.77836178 -3 9 C-3.66 9 -4.32 9 -5 9 C-5 8.34 -5 7.68 -5 7 C-4.34 7 -3.68 7 -3 7 C-3.33 5.02 -3.66 3.04 -4 1 C-2.68 0.67 -1.36 0.34 0 0 Z " fill="#7F52DC" transform="translate(250,298)"/>
<path d="M0 0 C1.98 0.99 1.98 0.99 4 2 C4 2.66 4 3.32 4 4 C4.99 4.33 5.98 4.66 7 5 C7 6.65 7 8.3 7 10 C3.60582235 6.87378374 1.3937282 4.43458973 0 0 Z " fill="#835BDC" transform="translate(171,284)"/>
<path d="M0 0 C2.125 0.375 2.125 0.375 4 1 C3.34 2.98 2.68 4.96 2 7 C1.34 7 0.68 7 0 7 C-0.66 5.35 -1.32 3.7 -2 2 C-1.34 1.34 -0.68 0.68 0 0 Z " fill="#703BE1" transform="translate(253,284)"/>
<path d="M0 0 C1.32 0.99 2.64 1.98 4 3 C3.67 3.99 3.34 4.98 3 6 C1 6 -1 6 -3 6 C-1.125 1.125 -1.125 1.125 0 0 Z " fill="#6834D8" transform="translate(244,189)"/>
<path d="M0 0 C1 2 1 2 0.0625 5.125 C-0.288125 6.07375 -0.63875 7.0225 -1 8 C-1.66 8 -2.32 8 -3 8 C-3.33 8.99 -3.66 9.98 -4 11 C-4.66 10.67 -5.32 10.34 -6 10 C-5.18957164 8.51969728 -4.37659652 7.04078858 -3.5625 5.5625 C-2.88380859 4.32693359 -2.88380859 4.32693359 -2.19140625 3.06640625 C-1 1 -1 1 0 0 Z " fill="#8358D8" transform="translate(106,275)"/>
<path d="M0 0 C0.33 0.66 0.66 1.32 1 2 C1.99 2.33 2.98 2.66 4 3 C4 3.66 4 4.32 4 5 C5.32 5.66 6.64 6.32 8 7 C6.68 7.33 5.36 7.66 4 8 C4 7.34 4 6.68 4 6 C2.68 5.34 1.36 4.68 0 4 C0 2.68 0 1.36 0 0 Z " fill="#916DDF" transform="translate(363,177)"/>
<path d="M0 0 C2.9375 0.75 2.9375 0.75 6 2 C6.9375 4 6.9375 4 7 6 C6.67 6.66 6.34 7.32 6 8 C4.02 5.36 2.04 2.72 0 0 Z " fill="#8A65DE" transform="translate(342,249)"/>
<path d="M0 0 C0.99 0.33 1.98 0.66 3 1 C3 3.31 3 5.62 3 8 C2.01 8.495 2.01 8.495 1 9 C1 7.68 1 6.36 1 5 C0.34 5 -0.32 5 -1 5 C-0.67 3.35 -0.34 1.7 0 0 Z " fill="#6730D8" transform="translate(32,391)"/>
<path d="M0 0 C0.33 0.66 0.66 1.32 1 2 C0.36971413 3.68076231 -0.29788106 5.34795544 -1 7 C-1 7.66 -1 8.32 -1 9 C-2.65 9.33 -4.3 9.66 -6 10 C-4.02 6.7 -2.04 3.4 0 0 Z " fill="#926BDF" transform="translate(46,369)"/>
<path d="M0 0 C0.99 0 1.98 0 3 0 C1.55746343 3.36591866 -0.33264727 5.51047079 -3 8 C-3 6.35 -3 4.7 -3 3 C-2.34 3 -1.68 3 -1 3 C-0.67 2.01 -0.34 1.02 0 0 Z " fill="#8D6ADA" transform="translate(64,364)"/>
<path d="M0 0 C2.91517292 1.07401108 4.77810176 1.77810176 7 4 C6.67 5.32 6.34 6.64 6 8 C4.02 5.36 2.04 2.72 0 0 Z " fill="#8F69DC" transform="translate(393,308)"/>
<path d="M0 0 C2.475 0.99 2.475 0.99 5 2 C3.35 3.65 1.7 5.3 0 7 C0 4.69 0 2.38 0 0 Z " fill="#855BE3" transform="translate(129,294)"/>
<path d="M0 0 C0.66 0.33 1.32 0.66 2 1 C1.67 1.66 1.34 2.32 1 3 C1.66 3 2.32 3 3 3 C3.33 3.99 3.66 4.98 4 6 C0.75791433 5.64950425 -0.61527704 5.43778819 -2.8125 2.9375 C-3.4003125 1.9784375 -3.4003125 1.9784375 -4 1 C-2.68 1.33 -1.36 1.66 0 2 C0 1.34 0 0.68 0 0 Z " fill="#5718DE" transform="translate(369,273)"/>
<path d="M0 0 C3.24299151 2.38957269 5.50902342 4.2047869 7 8 C4.69 7.34 2.38 6.68 0 6 C0.33 5.34 0.66 4.68 1 4 C0.60061233 1.90178785 0.60061233 1.90178785 0 0 Z " fill="#8C62E0" transform="translate(300,104)"/>
<path d="M0 0 C2.31 0.66 4.62 1.32 7 2 C7 3.65 7 5.3 7 7 C5.83040013 6.02433888 4.66438823 5.044375 3.5 4.0625 C2.8503125 3.51722656 2.200625 2.97195312 1.53125 2.41015625 C1.0259375 1.94480469 0.520625 1.47945312 0 1 C0 0.67 0 0.34 0 0 Z " fill="#8C64DD" transform="translate(318,222)"/>
<path d="M0 0 C0.33 0 0.66 0 1 0 C1 2.64 1 5.28 1 8 C-0.98 8.99 -0.98 8.99 -3 10 C-2.01 6.7 -1.02 3.4 0 0 Z " fill="#7B4EDC" transform="translate(280,105)"/>
<path d="M0 0 C1.65 0 3.3 0 5 0 C4.1875 1.9375 4.1875 1.9375 3 4 C2.01 4.33 1.02 4.66 0 5 C0 3.35 0 1.7 0 0 Z " fill="#6A3FD2" transform="translate(124,300)"/>
<path d="M0 0 C1.32 0 2.64 0 4 0 C4 0.66 4 1.32 4 2 C3.34 2 2.68 2 2 2 C1.67 3.65 1.34 5.3 1 7 C-0.0625 5.1875 -0.0625 5.1875 -1 3 C-0.67 2.01 -0.34 1.02 0 0 Z " fill="#5E23E2" transform="translate(139,283)"/>
<path d="M0 0 C1 2 1 2 0.0625 5.125 C-0.288125 6.07375 -0.63875 7.0225 -1 8 C-1.99 7.67 -2.98 7.34 -4 7 C-1.125 1.125 -1.125 1.125 0 0 Z " fill="#8963E1" transform="translate(122,250)"/>
<path d="M0 0 C0.33 0.99 0.66 1.98 1 3 C0.01 4.485 0.01 4.485 -1 6 C-2.32 4.35 -3.64 2.7 -5 1 C-3 0 -3 0 0 0 Z " fill="#7744DF" transform="translate(307,202)"/>
<path d="M0 0 C1.32 0.66 2.64 1.32 4 2 C3.67 2.99 3.34 3.98 3 5 C1.68 5 0.36 5 -1 5 C-0.67 3.35 -0.34 1.7 0 0 Z " fill="#805FD4" transform="translate(287,91)"/>
<path d="M0 0 C0 2.95274099 -0.43891831 4.49058403 -1.5 7.1875 C-1.7784375 7.90292969 -2.056875 8.61835937 -2.34375 9.35546875 C-2.5603125 9.89816406 -2.776875 10.44085938 -3 11 C-4.34726118 6.95821645 -3.32004573 4.96013719 -2 1 C-1.34 0.67 -0.68 0.34 0 0 Z " fill="#8B5EDE" transform="translate(539,35)"/>
<path d="M0 0 C2.4375 0.625 2.4375 0.625 5 2 C5.8125 5.125 5.8125 5.125 6 8 C1.125 3.375 1.125 3.375 0 0 Z " fill="#9871E1" transform="translate(192,314)"/>
<path d="M0 0 C2.52588702 2.36292656 3.88820837 3.66462511 5 7 C3.68 7 2.36 7 1 7 C0.67 4.69 0.34 2.38 0 0 Z " fill="#865BE0" transform="translate(168,199)"/>
<path d="M0 0 C0.99 0 1.98 0 3 0 C2.67 1.32 2.34 2.64 2 4 C0.02 4.33 -1.96 4.66 -4 5 C-4 4.34 -4 3.68 -4 3 C-2.68 3 -1.36 3 0 3 C0 2.01 0 1.02 0 0 Z " fill="#6528DF" transform="translate(305,198)"/>
<path d="M0 0 C0.66 0 1.32 0 2 0 C2.33 1.65 2.66 3.3 3 5 C1.35 4.67 -0.3 4.34 -2 4 C-1.34 2.68 -0.68 1.36 0 0 Z " fill="#6B34E0" transform="translate(342,153)"/>
<path d="M0 0 C0.66 0 1.32 0 2 0 C2 0.66 2 1.32 2 2 C2.66 2.33 3.32 2.66 4 3 C3.67 4.32 3.34 5.64 3 7 C2.01 6.67 1.02 6.34 0 6 C0 4.02 0 2.04 0 0 Z " fill="#5D20DE" transform="translate(465,41)"/>
<path d="M0 0 C2.375 0.6875 2.375 0.6875 5 2 C6.3125 4.625 6.3125 4.625 7 7 C6.01 7.495 6.01 7.495 5 8 C2.525 4.04 2.525 4.04 0 0 Z " fill="#8C66DB" transform="translate(203,330)"/>
<path d="M0 0 C1.32 0 2.64 0 4 0 C2.63016497 3.16115776 2.0109362 3.9927092 -1 6 C-1.33 5.01 -1.66 4.02 -2 3 C-1.01 3 -0.02 3 1 3 C0.67 2.01 0.34 1.02 0 0 Z " fill="#7F51DE" transform="translate(151,272)"/>
<path d="M0 0 C1.60725635 3.21451269 1.05748185 6.43612536 1 10 C0.01 9.34 -0.98 8.68 -2 8 C-1.125 1.125 -1.125 1.125 0 0 Z " fill="#581CDA" transform="translate(261,152)"/>
<path d="M0 0 C0.33 1.32 0.66 2.64 1 4 C-0.65 4.33 -2.3 4.66 -4 5 C-3.6875 3.0625 -3.6875 3.0625 -3 1 C-2.01 0.67 -1.02 0.34 0 0 Z " fill="#7547E2" transform="translate(469,36)"/>
</svg>
